<?xml version="1.0" encoding="UTF-8" standalone="no"?>
<!-- Created with Inkscape (http://www.inkscape.org/) -->

<svg
   width="60.844978mm"
   height="31.899605mm"
   viewBox="0 0 60.844978 31.899605"
   fill="currentColor"
   version="1.1"
   id="svg1"
   xml:space="preserve"
   xmlns="http://www.w3.org/2000/svg"
   xmlns:svg="http://www.w3.org/2000/svg"><defs
     id="defs1" /><g
     id="layer1"
     transform="translate(-139.16083,-205.2725)"><path
       id="text1-6-1-9"
       style="font-style:normal;font-variant:normal;font-weight:normal;font-stretch:normal;font-size:4.23333px;font-family:Betafont;-inkscape-font-specification:Betafont;text-align:start;writing-mode:lr-tb;direction:ltr;text-anchor:start;fill:currentColor;stroke-width:1.47713"
       d="m 139.16084,205.27248 v 18.87666 h 15.55023 v -18.87666 z m 1.15978,1.95893 h 2.16376 v 4.32463 h 10.86208 v 8.67525 2.16376 h -2.16376 -8.69832 -2.16376 v -2.16376 -6.51149 -2.16376 z m 31.48994,0 v 4.32463 2.16376 6.51149 2.16376 h 2.16376 10.86208 v -2.16376 h -10.86208 v -6.51149 h 10.86208 v -2.16376 h -10.86208 v -4.32463 z m -15.18672,4.32463 v 2.16376 2.16377 2.18395 4.32753 h 2.16376 10.86208 v -2.16376 H 158.7876 v -2.16377 h 8.69832 2.16376 v -2.18395 -2.16377 -2.16376 h -2.16376 -8.69832 z m 30.37344,0 v 2.16376 h 10.839 v 2.16377 h -8.67524 -2.16376 v 2.18395 2.16377 2.16376 h 2.16376 10.839 v -2.16376 -8.67525 z m -44.5129,2.16376 v 6.51149 h 8.69832 v -6.51149 z m 16.30322,0 h 8.69832 v 2.16377 h -8.69832 z m 30.37344,4.34772 h 8.67524 v 2.16377 h -8.67524 z m -50.0002,8.73294 v 2.96003 1.47712 4.45447 1.48001 h 1.48001 5.9489 1.48002 v -1.48001 -5.93159 h -7.42892 v -2.96003 z m 28.20391,0 v 2.96003 h -7.42891 v 1.47712 4.45447 1.48001 h 1.48001 5.9489 1.48001 v -1.48001 -8.89162 z m 2.95714,0 v 10.37163 h 1.48001 v -1.97912 l 2.38303,-1.75986 2.7725,3.73898 h 1.83775 l -3.41009,-4.61025 3.76783,-2.80135 h -2.49265 l -2.16376,1.60407 -1.19728,0.8857 -1.49733,1.10495 v -6.55475 z m -20.77499,2.96003 v 1.47712 1.48002 1.49443 2.96003 h 1.48001 7.42891 v -1.48001 h -7.42891 v -1.48002 h 5.9489 1.48001 v -1.49443 -1.48002 -1.47712 h -1.48001 -5.9489 z m 31.16393,0 v 1.47712 4.45447 1.48001 h 1.48001 5.9489 1.48002 v -1.48001 -5.93159 z m 10.38606,0 v 1.47712 5.93448 h 1.48001 v -5.93448 h 2.22723 v 5.93448 h 1.49444 v -5.93448 h 2.22723 v 5.93448 h 1.48001 v -5.93448 -1.47712 h -1.48001 -5.9489 z m -50.45604,1.47712 h 5.9489 v 4.45447 h -5.9489 z m 10.38606,0 h 5.9489 v 1.48002 h -5.9489 z m 10.38894,0 h 5.9489 v 4.45447 h -5.9489 z m 20.77499,0 h 5.9489 v 4.45447 h -5.9489 z" /></g></svg>
