<?xml version="1.0" encoding="UTF-8" standalone="no"?>
<!-- Created with Inkscape (http://www.inkscape.org/) -->

<svg
   viewBox="0 0 106.42129 18.875334"
   fill="currentColor"
   version="1.1"
   id="svg1"
   xml:space="preserve"
   xmlns="http://www.w3.org/2000/svg"
   xmlns:svg="http://www.w3.org/2000/svg"><defs
     id="defs1" /><g
     id="layer1"
     transform="translate(-8.0979652,-243.1934)"><path
       d="m 8.0979652,243.1934 v 18.87532 H 23.649047 V 243.1934 Z m 1.1612082,1.95812 h 2.1630346 v 4.32607 h 10.860711 v 8.6749 2.16304 H 20.119885 11.422208 9.2591734 v -2.16304 -6.51187 -2.16303 z m 2.1630346,6.4891 v 6.51187 h 8.697677 v -6.51187 z m 14.139397,-2.16303 v 2.16303 2.16304 2.1858 4.32607 h 2.163035 10.860712 v -2.16304 H 27.72464 v -2.16303 h 8.697677 2.163035 v -2.1858 -2.16304 -2.16303 H 36.422317 27.72464 Z m 2.163035,2.16303 h 8.697677 v 2.16304 H 27.72464 Z m 13.023746,-6.4891 v 4.32607 2.16303 6.51187 2.16304 h 2.163035 10.860711 v -2.16304 H 42.911421 v -6.51187 h 10.860711 v -2.16303 H 42.911421 v -4.32607 z m 15.186783,4.32607 v 2.16303 h 10.837943 v 2.16304 h -8.674908 -2.163035 v 2.1858 2.16303 2.16304 h 2.163035 10.837943 v -2.16304 -8.6749 z m 2.163035,6.51187 h 8.674908 v 2.16303 h -8.674908 z m 13.023748,4.32607 v -2.16304 -8.6749 h 2.163035 v 8.6749 h 3.255936 v -8.6749 h 2.185804 v 8.6749 h 3.255936 v -8.6749 h 2.163035 v 8.6749 2.16304 h -2.163035 -8.697676 z m 15.186783,-10.83794 v 2.16303 2.16304 2.1858 4.32607 h 2.163035 10.860711 v -2.16304 H 88.47177 v -2.16303 h 8.697676 2.163035 v -2.1858 -2.16304 -2.16303 H 97.169446 88.47177 Z m 2.163035,2.16303 h 8.697676 v 2.16304 H 88.47177 Z m 13.02375,-6.4891 v 4.32607 2.16303 6.51187 2.16304 h 2.16303 8.69768 2.16303 v -2.16304 -8.6749 h -10.86071 v -4.32607 z m 2.16303,6.4891 h 8.69768 v 6.51187 h -8.69768 z"
       id="text1-7-6-2-6-2"
       style="font-size:23.634px;font-family:Betafont;-inkscape-font-specification:Betafont;stroke-width:1.47713"
       aria-label="Betaweb" /></g></svg>
