<?xml version="1.0" encoding="UTF-8" standalone="no"?>
<!-- Created with Inkscape (http://www.inkscape.org/) -->

<svg
   viewBox="0 0 60.838181 18.875334"
   fill="currentColor"
   version="1.1"
   id="svg1"
   xml:space="preserve"
   xmlns="http://www.w3.org/2000/svg"
   xmlns:svg="http://www.w3.org/2000/svg"><defs
     id="defs1" /><g
     id="layer1"
     transform="translate(-8.1093691,-143.66908)"><path
       d="M 8.1093693,143.66908 V 162.5444 H 23.660451 v -18.87532 z m 1.1612081,1.95811 h 2.1630346 v 4.32607 h 10.860712 v 8.67491 2.16304 H 20.131289 11.433612 9.2705774 v -2.16304 -6.51187 -2.16304 z m 2.1630346,6.48911 v 6.51187 h 8.697677 v -6.51187 z m 14.139397,-2.16304 v 2.16304 2.16303 2.18581 4.32607 h 2.163035 10.860712 v -2.16304 H 27.736044 v -2.16303 h 8.697677 2.163035 v -2.18581 -2.16303 -2.16304 h -2.163035 -8.697677 z m 2.163035,2.16304 h 8.697677 v 2.16303 h -8.697677 z m 13.023746,-6.48911 v 4.32607 2.16304 6.51187 2.16304 h 2.163035 10.860712 v -2.16304 H 42.922825 v -6.51187 h 10.860712 v -2.16304 H 42.922825 v -4.32607 z m 15.186783,4.32607 v 2.16304 h 10.837943 v 2.16303 h -8.674908 -2.163035 v 2.18581 2.16303 2.16304 h 2.163035 10.837943 v -2.16304 -8.67491 z m 2.163035,6.51188 h 8.674908 v 2.16303 h -8.674908 z"
       id="text1-61"
       style="font-size:23.634px;font-family:Betafont;-inkscape-font-specification:Betafont;stroke-width:1.47713"
       aria-label="Beta" /></g></svg>
