<?xml version="1.0" encoding="UTF-8" standalone="no"?>
<!-- Created with Inkscape (http://www.inkscape.org/) -->

<svg
   width="60.850742mm"
   height="29.256935mm"
   viewBox="0 0 60.850742 29.256935"
   fill="currentColor"
   version="1.1"
   id="svg1"
   xml:space="preserve"
   xmlns="http://www.w3.org/2000/svg"
   xmlns:svg="http://www.w3.org/2000/svg"><defs
     id="defs1" /><g
     id="layer1"
     transform="translate(-139.16083,-143.66874)"><path
       id="text1-6-8"
       style="font-style:normal;font-variant:normal;font-weight:normal;font-stretch:normal;font-size:4.23333px;font-family:Betafont;-inkscape-font-specification:Betafont;text-align:start;writing-mode:lr-tb;direction:ltr;text-anchor:start;fill:currentColor;stroke-width:1.47713"
       d="m 139.16084,143.66875 v 18.87665 h 15.55023 v -18.87665 z m 1.15978,1.95893 h 2.16376 v 4.32463 h 10.86208 v 8.67525 2.16376 h -2.16376 -8.69832 -2.16376 v -2.16376 -6.51148 -2.16377 z m 31.48994,0 v 4.32463 2.16377 6.51148 2.16376 h 2.16376 10.86208 v -2.16376 h -10.86208 v -6.51148 h 10.86208 v -2.16377 h -10.86208 v -4.32463 z m -15.18672,4.32463 v 2.16377 2.16376 2.18395 4.32753 h 2.16376 10.86208 v -2.16376 H 158.7876 v -2.16377 h 8.69832 2.16376 v -2.18395 -2.16376 -2.16377 h -2.16376 -8.69832 z m 30.37344,0 v 2.16377 h 10.839 v 2.16376 h -8.67524 -2.16376 v 2.18395 2.16377 2.16376 h 2.16376 10.839 v -2.16376 -8.67525 z m -44.5129,2.16377 v 6.51148 h 8.69832 v -6.51148 z m 16.30322,0 h 8.69832 v 2.16376 h -8.69832 z m 30.37344,4.34771 h 8.67524 v 2.16377 h -8.67524 z m -19.02379,8.73006 v 2.20415 1.10496 3.31777 1.10496 h 1.10208 5.53922 v -1.10496 h -5.53922 v -3.31777 h 5.53922 V 167.398 h -5.53922 v -2.20415 z m 7.74338,0 v 7.73184 h 1.10208 v -1.47424 l 1.77717,-1.31269 2.06855,2.78693 h 1.3675 l -2.5417,-3.43605 2.81,-2.09164 h -1.85795 l -1.61272,1.19728 -0.89435,0.66067 -1.1165,0.82511 v -4.88721 z m -38.71979,2.20415 v 1.10496 1.10208 1.11361 2.20704 h 1.10208 5.53923 v -1.10496 h -5.53923 v -1.10208 h 4.43715 1.10208 v -1.11361 -1.10208 -1.10496 h -1.10208 -4.43715 z m 7.74338,0 v 2.23012 l 2.57921,2.90232 0.35774,0.39525 h 0.76741 l 0.36063,-0.39525 2.56478,-2.90232 v -1.66177 -0.55681 h -1.10208 v 1.80025 l -2.20703,2.484 -2.21569,-2.49554 V 167.398 Z m 7.74338,0 v 1.10496 1.10208 1.11361 2.20704 h 1.10496 5.53635 v -1.10496 h -5.53635 v -1.10208 h 4.43427 1.10208 v -1.11361 -1.10208 -1.10496 h -1.10208 -4.43427 z m 7.74627,0 v 1.10496 4.42273 h 1.10207 v -4.42273 h 4.43427 v 4.42273 h 1.10497 V 167.398 h -5.53924 z m 23.23014,0 v 1.10496 3.31777 1.10496 h 1.10496 4.43427 1.10208 v -1.10496 -4.42273 z m 7.74627,0 v 1.10496 4.42273 h 1.10207 v -4.42273 h 1.65888 v 4.42273 h 1.11651 v -4.42273 h 1.65888 v 4.42273 h 1.10496 v -4.42273 -1.10496 h -1.10496 -4.43427 z m -53.10736,1.10496 h 4.43715 v 1.10208 h -4.43715 z m 15.48964,0 h 4.43427 v 1.10208 h -4.43427 z m 30.97641,0 h 4.43427 v 3.31777 h -4.43427 z" /></g></svg>
