<?xml version="1.0" encoding="UTF-8" standalone="no"?>
<!-- Created with Inkscape (http://www.inkscape.org/) -->

<svg
   viewBox="0 0 106.39853 18.875334"
   fill="currentColor"
   version="1.1"
   id="svg1"
   xml:space="preserve"
   xmlns="http://www.w3.org/2000/svg"
   xmlns:svg="http://www.w3.org/2000/svg"><defs
     id="defs1" /><g
     id="layer1"
     transform="translate(-8.1093692,-168.55015)"><path
       d="m 8.1093693,168.55015 v 18.87533 H 23.660451 v -18.87533 z m 1.1612081,1.95812 h 2.1630346 v 4.32607 h 10.860712 v 8.6749 2.16304 H 20.131289 11.433612 9.2705774 v -2.16304 -6.51187 -2.16303 z m 2.1630346,6.4891 v 6.51187 h 8.697677 v -6.51187 z m 14.139397,-2.16303 v 2.16303 2.16304 2.1858 4.32607 h 2.163035 10.860712 v -2.16304 H 27.736044 v -2.16303 h 8.697677 2.163035 v -2.1858 -2.16304 -2.16303 h -2.163035 -8.697677 z m 2.163035,2.16303 h 8.697677 v 2.16304 h -8.697677 z m 13.023746,-6.4891 v 4.32607 2.16303 6.51187 2.16304 h 2.163035 10.860712 v -2.16304 H 42.922825 v -6.51187 h 10.860712 v -2.16303 H 42.922825 v -4.32607 z m 15.186783,4.32607 v 2.16303 h 10.837943 v 2.16304 h -8.674908 -2.163035 v 2.1858 2.16303 2.16304 h 2.163035 10.837943 v -2.16304 -8.6749 z m 2.163035,6.51187 h 8.674908 v 2.16303 h -8.674908 z m 23.884459,-10.83794 v 4.32607 H 71.133356 v 2.16303 6.51187 2.16304 h 2.163035 8.697676 2.163035 v -2.16304 -13.00097 z m -8.697676,6.4891 h 8.697676 v 6.51187 h -8.697676 z m 13.023748,-2.16303 v 2.16303 2.16304 2.1858 4.32607 h 2.163035 10.860711 v -2.16304 H 88.483174 v -2.16303 h 8.697676 2.163035 v -2.1858 -2.16304 -2.16303 H 97.18085 88.483174 Z m 2.163035,2.16303 h 8.697676 v 2.16304 h -8.697676 z m 13.023746,-2.16303 v 4.3716 l 5.05467,5.6922 0.70583,0.77414 h 1.50274 l 0.70584,-0.77414 5.0319,-5.6922 v -3.25593 -1.09291 h -2.16304 v 3.52917 l -4.32607,4.87252 -4.34883,-4.89529 v -3.52916 z"
       id="text1-7-3"
       style="font-size:23.634px;font-family:Betafont;-inkscape-font-specification:Betafont;stroke-width:1.47713"
       aria-label="Betadev" /></g></svg>
